# xmcd
#
# Track frame offsets:
#	150
#	13463
#	27707
#	38225
#	56481
#	72827
#	87604
#	102138
#	118939
#	134380
#	148524
#
# Disc length: 2218 seconds
#
# Revision: 1
# Processed by: cddbd v1.4PL0 Copyright (c) Steve Scherf et al.
# Submitted via: audiograbber 1.80.04
#
DISCID=a508a80b
DTITLE=Aaron Tippin - People Like Us
DYEAR=1992
DGENRE=Country
TTITLE0=Kiss This
TTITLE1=And I Love You
TTITLE2=People Like Us
TTITLE3=Always Was
TTITLE4=I'd Be Afraid Of Losing You
TTITLE5=Lost
TTITLE6=Big Boy Toys
TTITLE7=Twenty-Nine And Holding
TTITLE8=Every Now and Then 
TTITLE9=The Night Shift
TTITLE10=The Best Love We Ever Made
EXTD=
EXTT0=
EXTT1=
EXTT2=
EXTT3=
EXTT4=
EXTT5=
EXTT6=
EXTT7=
EXTT8=
EXTT9=
EXTT10=
PLAYORDER=
